<svg aria-hidden="true" style="position: absolute; width: 0; height: 0; overflow: hidden;" version="1.1" xmlns="http://www.w3.org/2000/svg" xmlns:xlink="http://www.w3.org/1999/xlink">
<defs>
<symbol id="ibm" viewBox="0 0 49 32">
<path d="M0.024 6.204v1.339h9.524v-1.339h-9.524zM10.898 6.204v1.339h13.573c0 0-1.386-1.339-3.223-1.339h-10.35zM27.133 6.204v1.339h8.211l-0.487-1.339h-7.724zM41.232 6.204l-0.487 1.339h8.137v-1.339h-7.65zM0.024 8.808v1.339h9.524v-1.339h-9.524zM10.898 8.81v1.337h15.148c0 0-0.177-1.031-0.485-1.337h-14.662zM27.133 8.81v1.337h9.112l-0.451-1.337h-8.661zM40.257 8.81l-0.451 1.337h9.076v-1.337h-8.624zM2.761 11.413v1.341h4.125v-1.341h-4.125zM13.635 11.413v1.341h4.125v-1.341h-4.125zM21.772 11.413v1.341h4.125c0 0 0.262-0.708 0.262-1.341l-4.387 0zM29.87 11.413v1.341h7.313l-0.487-1.341-6.825 0zM39.359 11.413l-0.489 1.341h7.349v-1.341h-6.86zM2.761 14.019v1.339h4.125v-1.339h-4.125zM13.635 14.019v1.339h10.536c0 0 0.881-0.687 1.162-1.339l-11.698 0zM29.87 14.019v1.339h4.125v-0.745l0.262 0.745h7.556l0.281-0.745v0.745h4.125v-1.339h-7.743l-0.411 1.134-0.413-1.134h-7.781zM2.761 16.623v1.339h4.125v-1.339h-4.125zM13.635 16.623v1.339h11.698c-0.281-0.65-1.162-1.339-1.162-1.339h-10.536zM29.87 16.623v1.339h4.125v-1.339h-4.125zM34.745 16.623l0.499 1.339h5.665l0.474-1.339h-6.638zM42.094 16.623v1.339h4.125v-1.339h-4.125zM2.761 19.227v1.339h4.125v-1.339h-4.125zM13.635 19.227v1.339h4.125v-1.339h-4.125zM21.772 19.227v1.339h4.387c0-0.632-0.262-1.339-0.262-1.339h-4.125zM29.87 19.227v1.339h4.125v-1.339h-4.125zM35.681 19.227l0.484 1.339h3.798l0.487-1.339h-4.769zM42.094 19.227v1.339h4.125v-1.339h-4.125zM0.098 21.832v1.341h9.524v-1.341l-9.524 0zM10.898 21.832v1.341h14.662c0.309-0.307 0.485-1.341 0.485-1.341l-15.148 0zM27.208 21.832v1.341h6.787v-1.341l-6.787 0zM36.619 21.832l0.497 1.341h1.932l0.467-1.341-2.896 0zM42.094 21.832v1.341h6.862v-1.341l-6.862 0zM0.098 24.438v1.339h9.524v-1.339h-9.524zM10.898 24.438v1.337h10.35c1.836 0 3.223-1.337 3.223-1.337l-13.573 0zM27.208 24.438v1.339h6.787v-1.339h-6.787zM37.562 24.438l0.478 1.335 0.082 0.002 0.486-1.337-1.046 0zM42.094 24.438v1.339h6.862v-1.339h-6.862z"></path>
</symbol>
<symbol id="twitter" viewBox="0 0 32 32">
<path d="M28.629 7.845c-0.944 0.407-1.971 0.7-3.029 0.814 1.099-0.653 1.921-1.684 2.314-2.9-1.031 0.613-2.16 1.043-3.338 1.271-0.492-0.526-1.088-0.945-1.749-1.232s-1.375-0.433-2.095-0.431c-2.915 0-5.26 2.363-5.26 5.263 0 0.407 0.049 0.814 0.13 1.206-4.365-0.228-8.258-2.314-10.847-5.507-0.472 0.806-0.719 1.723-0.716 2.656 0 1.826 0.929 3.437 2.345 4.384-0.834-0.033-1.649-0.262-2.378-0.669v0.065c0 2.557 1.808 4.677 4.217 5.164-0.452 0.118-0.918 0.178-1.385 0.179-0.342 0-0.666-0.034-0.993-0.080 0.666 2.085 2.607 3.6 4.917 3.649-1.808 1.416-4.072 2.249-6.531 2.249-0.441 0-0.848-0.015-1.271-0.065 2.332 1.496 5.099 2.36 8.079 2.36 9.674 0 14.968-8.015 14.968-14.971 0-0.228 0-0.457-0.015-0.685 1.024-0.75 1.922-1.678 2.638-2.721z"></path>
</symbol>
<symbol id="facebook" viewBox="0 0 33 32">
<path d="M27.666 3.455h-22.705c-0.546 0-0.987 0.441-0.987 0.987v22.705c0 0.546 0.441 0.987 0.987 0.987h22.705c0.546 0 0.987-0.441 0.987-0.987v-22.705c0-0.546-0.441-0.987-0.987-0.987zM24.816 10.659h-1.971c-1.546 0-1.845 0.734-1.845 1.814v2.379h3.69l-0.481 3.723h-3.208v9.56h-3.847v-9.557h-3.218v-3.727h3.218v-2.746c0-3.187 1.947-4.924 4.791-4.924 1.363 0 2.533 0.102 2.875 0.148v3.329h-0.003z"></path>
</symbol>
<symbol id="linkedin" viewBox="0 0 32 32">
<path d="M27.558 3.455h-22.705c-0.546 0-0.987 0.441-0.987 0.987v22.705c0 0.546 0.441 0.987 0.987 0.987h22.705c0.546 0 0.987-0.441 0.987-0.987v-22.705c0-0.546-0.441-0.987-0.987-0.987zM11.187 24.485h-3.662v-11.778h3.662v11.778zM9.357 11.097c-0.42 0-0.83-0.124-1.179-0.358s-0.621-0.565-0.782-0.952c-0.161-0.388-0.203-0.815-0.121-1.226s0.284-0.79 0.581-1.087 0.675-0.499 1.087-0.581c0.412-0.082 0.838-0.040 1.226 0.121s0.719 0.433 0.953 0.782c0.233 0.349 0.358 0.759 0.358 1.179-0.003 1.172-0.953 2.122-2.122 2.122zM24.896 24.485h-3.659v-5.729c0-1.367-0.025-3.122-1.903-3.122-1.903 0-2.197 1.487-2.197 3.023v5.827h-3.656v-11.778h3.511v1.61h0.049c0.487-0.925 1.681-1.903 3.464-1.903 3.708 0 4.39 2.44 4.39 5.612v6.46z"></path>
</symbol>
</defs>
</svg>
